<?xml version="1.0" encoding="UTF-8" standalone="no"?>
<!DOCTYPE svg PUBLIC "-//W3C//DTD SVG 1.1//EN" "http://www.w3.org/Graphics/SVG/1.1/DTD/svg11.dtd">
<svg width="100%" height="100%" viewBox="0 0 835 222" version="1.1" xmlns="http://www.w3.org/2000/svg" xmlns:xlink="http://www.w3.org/1999/xlink" xml:space="preserve" xmlns:serif="http://www.serif.com/" style="fill-rule:evenodd;clip-rule:evenodd;stroke-linecap:round;stroke-linejoin:round;">
    <g transform="matrix(1,0,0,1,-167.014,-135.502)">
        <g id="Icon" transform="matrix(1.16718,0,0,1.16878,-98.7321,-56.7536)">
            <g transform="matrix(1,0,0,1,226.686,165.221)">
                <circle cx="94.5" cy="94.5" r="89.5" style="fill:none;stroke:rgb(108,117,125);stroke-width:8px;"/>
            </g>
            <g transform="matrix(1,0,0,1,226.686,165.221)">
                <path d="M110.983,83.212L110.983,38.683L80.527,38.683L80.527,83.212L35.911,83.212L35.911,113.608L80.527,113.608L80.527,158.137L110.983,158.137L110.983,113.608L155.6,113.608L155.6,83.212L110.983,83.212Z" style="fill:none;fill-rule:nonzero;stroke:rgb(108,117,125);stroke-width:8px;"/>
            </g>
        </g>
        <g transform="matrix(1,0,0,1,-25.4148,36.4735)">
            <text x="453.595px" y="186.628px" style="font-family:'GothamLight', 'Gotham Light';font-weight:300;font-size:120px;fill:rgb(108,117,125);">greenlake</text>
        </g>
        <g transform="matrix(1,0,0,1,-12.4162,58.0756)">
            <text x="442.381px" y="297.172px" style="font-family:'GothamBlack', 'Gotham Black';font-weight:900;font-size:144px;fill:rgb(108,117,125);">medical</text>
        </g>
    </g>
</svg>
